<svg width="24" height="24" viewBox="0 0 24 24" fill="none" xmlns="http://www.w3.org/2000/svg">
<circle cx="12" cy="12" r="12" fill="#254AE3"/>
<g clip-path="url(#clip0_6612_2494)">
<path d="M10.7237 12.9535C10.7513 12.9781 10.7848 12.9955 10.821 13.004C10.8573 13.0125 10.8952 13.0119 10.9313 13.0022C10.9674 12.9925 11.0006 12.9741 11.0277 12.9486C11.0549 12.9231 11.0752 12.8913 11.0868 12.8562L12.6261 6.95011C12.6354 6.91418 12.6351 6.87653 12.6251 6.8409C12.6152 6.80526 12.596 6.77288 12.5694 6.74696C12.5428 6.72104 12.5097 6.70249 12.4735 6.69314C12.4373 6.68379 12.3992 6.68396 12.3629 6.69365L6.53747 8.25456C6.50119 8.26428 6.46805 8.28318 6.44132 8.30938C6.4146 8.33558 6.39523 8.36817 6.38513 8.40393C6.37504 8.43969 6.37457 8.47736 6.38377 8.51321C6.39297 8.54906 6.41153 8.58185 6.43759 8.60831L10.7237 12.9535Z" fill="#00F9FF"/>
<path d="M13.277 11.0446C13.2494 11.0199 13.216 11.0026 13.1797 10.9941C13.1434 10.9856 13.1055 10.9862 13.0694 10.9958C13.0333 11.0055 13.0002 11.0239 12.973 11.0494C12.9459 11.075 12.9256 11.1067 12.914 11.1418L11.3747 17.0479C11.3653 17.0839 11.3657 17.1215 11.3756 17.1571C11.3855 17.1928 11.4048 17.2252 11.4314 17.2511C11.458 17.277 11.491 17.2956 11.5272 17.3049C11.5634 17.3143 11.6016 17.3141 11.6378 17.3044L17.4632 15.7435C17.4995 15.7338 17.5327 15.7149 17.5594 15.6887C17.5861 15.6625 17.6055 15.6299 17.6156 15.5941C17.6257 15.5584 17.6262 15.5207 17.617 15.4848C17.6078 15.449 17.5892 15.4162 17.5631 15.3897L13.277 11.0446Z" fill="white"/>
</g>
<defs>
<clipPath id="clip0_6612_2494">
<rect width="12" height="12" fill="white" transform="translate(6 6)"/>
</clipPath>
</defs>
</svg>
