<svg width="164" height="24" viewBox="0 0 164 24" fill="none" xmlns="http://www.w3.org/2000/svg">
<g clip-path="url(#clip0_168_17924)">
<mask id="mask0_168_17924" style="mask-type:luminance" maskUnits="userSpaceOnUse" x="0" y="0" width="38" height="24">
<path d="M34 0H4C1.79086 0 0 1.79086 0 4V20C0 22.2091 1.79086 24 4 24H34C36.2091 24 38 22.2091 38 20V4C38 1.79086 36.2091 0 34 0Z" fill="white"/>
</mask>
<g mask="url(#mask0_168_17924)">
<path d="M34 0.5H4C2.067 0.5 0.5 2.067 0.5 4V20C0.5 21.933 2.067 23.5 4 23.5H34C35.933 23.5 37.5 21.933 37.5 20V4C37.5 2.067 35.933 0.5 34 0.5Z" fill="white" stroke="#E3E9F1"/>
<path fill-rule="evenodd" clip-rule="evenodd" d="M5.4375 8.39453H7.45009C7.80497 8.39453 8.12413 8.4278 8.40755 8.48961C8.69098 8.55378 8.9363 8.65837 9.13875 8.80574C9.3412 8.95073 9.4984 9.13851 9.61035 9.36669C9.71991 9.59488 9.77468 9.86823 9.77468 10.1891C9.77468 10.5338 9.71038 10.8214 9.58414 11.0543C9.45553 11.2872 9.28404 11.475 9.06492 11.6177C8.8458 11.7603 8.59333 11.8648 8.30276 11.9291C8.01218 11.9932 7.70494 12.0241 7.37863 12.0241H6.53311V14.5888H5.4375V8.39453ZM7.30242 11.0995C7.48105 11.0995 7.65492 11.0876 7.81688 11.0591C7.97884 11.0329 8.12413 10.9854 8.25274 10.9188C8.38136 10.8523 8.48139 10.7596 8.55761 10.6431C8.63382 10.5266 8.67193 10.3745 8.67193 10.1868C8.67193 10.0061 8.63382 9.85872 8.55761 9.74462C8.48139 9.63053 8.38135 9.54258 8.2575 9.47841C8.13127 9.41423 7.99075 9.37145 7.83117 9.35243C7.67159 9.33104 7.50725 9.32153 7.33814 9.32153H6.53549V11.0971H7.30242V11.0995ZM12.809 14.0564H12.7828C12.678 14.2442 12.509 14.3963 12.2779 14.5151C12.0445 14.634 11.7825 14.6957 11.4848 14.6957C11.3157 14.6957 11.1418 14.6744 10.9584 14.6292C10.775 14.584 10.6059 14.5127 10.4535 14.4105C10.2987 14.3083 10.1724 14.1752 10.07 14.0088C9.96761 13.8424 9.91759 13.6356 9.91759 13.3908C9.91759 13.0747 10.0057 12.8251 10.1843 12.6373C10.363 12.4496 10.5893 12.3069 10.8679 12.2095C11.1466 12.1097 11.4562 12.0455 11.7968 12.0122C12.1374 11.9813 12.4685 11.9647 12.7948 11.9647V11.8601C12.7948 11.5986 12.6995 11.4037 12.5113 11.2777C12.3232 11.1517 12.0969 11.09 11.8349 11.09C11.6134 11.09 11.4014 11.1375 11.199 11.2302C10.9965 11.3229 10.8274 11.4369 10.694 11.5701L10.1534 10.9307C10.3916 10.7096 10.6654 10.5432 10.9775 10.4315C11.2895 10.3198 11.6039 10.2651 11.923 10.2651C12.2946 10.2651 12.6019 10.3174 12.8424 10.422C13.0829 10.5266 13.2735 10.6645 13.414 10.8333C13.5545 11.002 13.6498 11.1921 13.707 11.4013C13.7618 11.6105 13.7904 11.822 13.7904 12.0312V14.5864H12.8138L12.809 14.0564ZM12.7924 12.673H12.5566C12.3875 12.673 12.2112 12.6801 12.0254 12.6944C11.8396 12.7086 11.6682 12.7419 11.511 12.7894C11.3538 12.8394 11.2228 12.9083 11.118 12.9986C11.0132 13.0889 10.9608 13.2125 10.9608 13.3718C10.9608 13.4716 10.9823 13.5548 11.0275 13.6214C11.0703 13.688 11.1275 13.7426 11.1966 13.783C11.2657 13.8234 11.3443 13.8519 11.4324 13.871C11.5205 13.8876 11.6063 13.8971 11.6944 13.8971C12.054 13.8971 12.3279 13.802 12.5137 13.6095C12.6995 13.4169 12.7924 13.1531 12.7924 12.8227V12.673ZM15.2551 10.3888H14.0952L15.8863 14.5864L15.6767 15.1212C15.629 15.2306 15.5862 15.328 15.5457 15.4088C15.5028 15.4896 15.4575 15.5586 15.4052 15.6133C15.3552 15.6703 15.2908 15.7107 15.2146 15.7368C15.1384 15.7654 15.0455 15.7772 14.936 15.7772C14.8764 15.7772 14.8145 15.7748 14.7478 15.7654C14.6811 15.7582 14.6121 15.7416 14.543 15.7178L14.4572 16.6282C14.5501 16.652 14.6406 16.6662 14.7311 16.6757C14.8216 16.6828 14.9098 16.6876 14.9979 16.6876C15.2313 16.6876 15.4314 16.6615 15.5957 16.6091C15.7601 16.5569 15.9053 16.4784 16.0268 16.3763C16.1507 16.274 16.2555 16.1504 16.3412 16.0007C16.4269 15.8533 16.5079 15.6821 16.5842 15.4896L18.5634 10.3888H17.4749L16.4388 13.4431H16.4222L15.2551 10.3888Z" fill="#1C1C1E"/>
<path d="M29.6634 5H22.5416C20.9191 5 19.6025 6.3152 19.6025 7.9393V15.0607C19.6025 16.6848 20.9191 18 22.5416 18H29.6634C31.286 18 32.6025 16.6848 32.6025 15.0607V7.93689C32.6025 6.3152 31.286 5 29.6634 5ZM25.1115 8.16131L25.4807 8.11546C25.5123 8.11305 26.2555 8.02376 27.1179 8.20475C28.3105 8.45573 29.1533 9.09523 29.559 10.0557L28.7842 10.3815C28.2327 9.0711 26.6685 8.92389 25.9519 8.92872V12.826H25.1115V8.16131ZM22.459 8.69464C22.459 8.34713 22.7408 8.0672 23.0881 8.0672C23.4355 8.0672 23.7173 8.34713 23.7173 8.69464C23.7173 9.04214 23.4355 9.32207 23.0881 9.32207C22.7408 9.32207 22.459 9.04214 22.459 8.69464ZM29.7655 12.271C29.7193 12.5679 29.6513 12.8357 29.5639 13.0432C28.9955 14.3802 27.6668 15.0583 25.6191 15.0583H22.6364V10.4201H23.4768V14.2185H25.6168C27.2952 14.2185 28.3639 13.7117 28.7866 12.7151C28.8351 12.5992 28.8789 12.4448 28.9104 12.271H28.2133L29.4133 10.7652L30.6156 12.2735L29.7655 12.271Z" fill="#1C1C1E"/>
</g>
<mask id="mask1_168_17924" style="mask-type:luminance" maskUnits="userSpaceOnUse" x="42" y="0" width="38" height="24">
<path d="M76 0H46C43.7909 0 42 1.79086 42 4V20C42 22.2091 43.7909 24 46 24H76C78.2091 24 80 22.2091 80 20V4C80 1.79086 78.2091 0 76 0Z" fill="white"/>
</mask>
<g mask="url(#mask1_168_17924)">
<path d="M76 0.5H46C44.067 0.5 42.5 2.067 42.5 4V20C42.5 21.933 44.067 23.5 46 23.5H76C77.933 23.5 79.5 21.933 79.5 20V4C79.5 2.067 77.933 0.5 76 0.5Z" fill="white" stroke="#E3E9F1"/>
<path fill-rule="evenodd" clip-rule="evenodd" d="M61.404 10.8265C61.394 11.8827 62.35 12.4761 63.071 12.8245C63.814 13.1838 64.065 13.4179 64.059 13.7391C64.054 14.2345 63.469 14.4469 62.918 14.4578C61.962 14.4741 61.404 14.2019 60.962 13.995L60.618 15.6065C61.06 15.8079 61.885 15.9875 62.737 15.9984C64.742 15.9984 66.048 15.0131 66.059 13.4833C66.064 11.5451 63.366 11.4363 63.388 10.5706C63.393 10.3093 63.644 10.0262 64.196 9.95546C64.469 9.91735 65.223 9.89013 66.075 10.2821L66.409 8.72509C65.95 8.55632 65.36 8.39844 64.622 8.39844C62.743 8.39844 61.415 9.40016 61.404 10.8265ZM69.632 8.53454C69.266 8.53454 68.96 8.74686 68.818 9.07351L65.955 15.8787H67.955L68.353 14.7844H70.801L71.03 15.8787H72.8L71.26 8.53454H69.632ZM69.91 10.5216L70.489 13.2818H68.905L69.91 10.5216ZM58.979 8.53454L57.4001 15.8787H59.307L60.885 8.53454H58.979ZM56.16 8.53454L54.1715 13.5377L53.3684 9.28583C53.2756 8.81219 52.9041 8.53454 52.4889 8.53454H49.2439L49.2002 8.74686C49.8667 8.88841 50.6206 9.12251 51.0795 9.37294C51.3581 9.52537 51.44 9.65603 51.5329 10.0208L53.0516 15.8841H55.0674L58.159 8.53454H56.16Z" fill="#1A1F71"/>
</g>
<mask id="mask2_168_17924" style="mask-type:luminance" maskUnits="userSpaceOnUse" x="84" y="0" width="38" height="24">
<path d="M118 0H88C85.7909 0 84 1.79086 84 4V20C84 22.2091 85.7909 24 88 24H118C120.209 24 122 22.2091 122 20V4C122 1.79086 120.209 0 118 0Z" fill="white"/>
</mask>
<g mask="url(#mask2_168_17924)">
<path d="M118 0.5H88C86.067 0.5 84.5 2.067 84.5 4V20C84.5 21.933 86.067 23.5 88 23.5H118C119.933 23.5 121.5 21.933 121.5 20V4C121.5 2.067 119.933 0.5 118 0.5Z" fill="white" stroke="#E3E9F1"/>
<path d="M105.94 6.96875H100.34V17.0324H105.94V6.96875Z" fill="#FF5F00"/>
<path d="M100.71 12.0015C100.709 11.0322 100.928 10.0755 101.352 9.20376C101.776 8.332 102.392 7.56805 103.155 6.96976C102.21 6.2277 101.077 5.76623 99.8828 5.6381C98.6888 5.50997 97.4828 5.72035 96.4028 6.2452C95.3218 6.77004 94.4118 7.58818 93.7748 8.60609C93.1378 9.624 92.7998 10.8006 92.7998 12.0015C92.7998 13.2023 93.1378 14.3789 93.7748 15.3969C94.4118 16.4148 95.3218 17.2329 96.4028 17.7577C97.4828 18.2826 98.6888 18.493 99.8828 18.3649C101.077 18.2367 102.21 17.7753 103.155 17.0332C102.392 16.4349 101.776 15.6709 101.352 14.7992C100.928 13.9274 100.709 12.9707 100.71 12.0015Z" fill="#EB001B"/>
<path d="M112.898 15.967V15.761H112.981V15.7191H112.77V15.761H112.853V15.967H112.898ZM113.309 15.967V15.7188H113.244L113.17 15.8896L113.095 15.7188H113.03V15.967H113.076V15.7797L113.146 15.9412H113.193L113.263 15.7793V15.967H113.309Z" fill="#F79E1B"/>
<path d="M107.109 5.60157C105.675 5.59935 104.281 6.08142 103.154 6.96976C103.916 7.56864 104.532 8.33272 104.956 9.20434C105.379 10.076 105.599 11.0324 105.599 12.0015C105.599 12.9706 105.379 13.927 104.956 14.7986C104.532 15.6702 103.916 16.4343 103.154 17.0332C103.956 17.6637 104.898 18.0933 105.899 18.2861C106.901 18.479 107.935 18.4296 108.913 18.142C109.892 17.8544 110.788 17.337 111.527 16.6329C112.265 15.9287 112.824 15.0583 113.158 14.0942C113.491 13.13 113.589 12.1001 113.444 11.0903C113.299 10.0804 112.914 9.11997 112.322 8.28895C111.731 7.45794 110.949 6.78044 110.042 6.31297C109.135 5.84549 108.13 5.60158 107.109 5.60157Z" fill="#F79E1B"/>
</g>
<mask id="mask3_168_17924" style="mask-type:luminance" maskUnits="userSpaceOnUse" x="126" y="0" width="38" height="24">
<path d="M160 0H130C127.791 0 126 1.79086 126 4V20C126 22.2091 127.791 24 130 24H160C162.209 24 164 22.2091 164 20V4C164 1.79086 162.209 0 160 0Z" fill="white"/>
</mask>
<g mask="url(#mask3_168_17924)">
<path d="M160 0.5H130C128.067 0.5 126.5 2.067 126.5 4V20C126.5 21.933 128.067 23.5 130 23.5H160C161.933 23.5 163.5 21.933 163.5 20V4C163.5 2.067 161.933 0.5 160 0.5Z" fill="white" stroke="#E3E9F1"/>
<mask id="mask4_168_17924" style="mask-type:luminance" maskUnits="userSpaceOnUse" x="130" y="7" width="30" height="10">
<path d="M160 7H130V17H160V7Z" fill="white"/>
</mask>
<g mask="url(#mask4_168_17924)">
<mask id="mask5_168_17924" style="mask-type:luminance" maskUnits="userSpaceOnUse" x="130" y="7" width="10" height="10">
<path d="M140 7H130V17H140V7Z" fill="white"/>
</mask>
<g mask="url(#mask5_168_17924)">
<path d="M135 17C137.761 17 140 14.7614 140 12C140 9.23858 137.761 7 135 7C132.239 7 130 9.23858 130 12C130 14.7614 132.239 17 135 17Z" fill="#3974F6"/>
<path d="M134.37 12.4699C134.384 12.482 134.4 12.4906 134.418 12.4947C134.436 12.4989 134.455 12.4986 134.472 12.4939C134.49 12.4891 134.507 12.48 134.52 12.4675C134.533 12.4549 134.543 12.4393 134.549 12.422L135.307 9.5137C135.312 9.49601 135.311 9.47747 135.307 9.45992C135.302 9.44238 135.292 9.42643 135.279 9.41367C135.266 9.40091 135.25 9.39178 135.232 9.38717C135.214 9.38257 135.195 9.38266 135.177 9.38743L132.31 10.1563C132.292 10.1611 132.275 10.1704 132.262 10.1833C132.249 10.1962 132.24 10.2122 132.235 10.2298C132.23 10.2474 132.229 10.266 132.234 10.2836C132.238 10.3013 132.248 10.3174 132.26 10.3305L134.37 12.4699Z" fill="#00F9FF"/>
<path d="M135.627 11.5302C135.614 11.5181 135.597 11.5095 135.579 11.5054C135.562 11.5012 135.543 11.5015 135.525 11.5062C135.507 11.511 135.491 11.5201 135.478 11.5326C135.464 11.5452 135.454 11.5608 135.449 11.5781L134.691 14.4863C134.686 14.504 134.686 14.5226 134.691 14.5401C134.696 14.5577 134.705 14.5736 134.718 14.5864C134.732 14.5991 134.748 14.6083 134.766 14.6129C134.783 14.6175 134.802 14.6174 134.82 14.6126L137.688 13.8438C137.706 13.839 137.722 13.8297 137.735 13.8168C137.748 13.8039 137.758 13.7879 137.763 13.7703C137.768 13.7527 137.768 13.7341 137.764 13.7165C137.759 13.6988 137.75 13.6827 137.737 13.6696L135.627 11.5302Z" fill="white"/>
</g>
<path fill-rule="evenodd" clip-rule="evenodd" d="M149.118 11.2675H149.713V7.36322L149.118 7V11.2675ZM150.334 11.2675H150.929V7.36322L150.334 7V11.2675ZM148.502 9.70822C148.501 9.80474 148.492 9.901 148.474 9.9959H146.013C146.061 10.2246 146.169 10.3951 146.337 10.5076C146.504 10.6201 146.71 10.6764 146.953 10.6764C147.307 10.6764 147.593 10.5786 147.81 10.3832L148.308 10.6764C148.183 10.8645 147.99 11.0083 147.73 11.1079C147.47 11.2074 147.211 11.2572 146.953 11.2572C146.518 11.2572 146.151 11.1079 145.853 10.8091C145.554 10.5104 145.405 10.1434 145.405 9.70822C145.405 9.28416 145.557 8.91996 145.861 8.61562C146.165 8.31128 146.529 8.15914 146.953 8.15921C147.377 8.15921 147.741 8.31135 148.045 8.61562C148.35 8.91989 148.502 9.28409 148.502 9.70822ZM147.877 9.41522C147.818 9.21606 147.702 9.05379 147.529 8.92839C147.362 8.80618 147.16 8.74029 146.953 8.74029C146.747 8.74029 146.545 8.80618 146.378 8.92839C146.205 9.05365 146.089 9.21593 146.03 9.41522H147.877ZM152.298 11.0578C152.533 11.191 152.805 11.2576 153.112 11.2576C153.418 11.2576 153.689 11.191 153.923 11.0578C154.158 10.9246 154.342 10.7418 154.473 10.5092C154.606 10.2747 154.672 10.0065 154.672 9.70455C154.672 9.40445 154.606 9.13905 154.473 8.90835C154.342 8.67578 154.158 8.49478 153.923 8.36536C153.689 8.23407 153.418 8.16842 153.112 8.16842C152.805 8.16842 152.533 8.23407 152.298 8.36536C152.064 8.49478 151.88 8.67578 151.747 8.90835C151.616 9.13905 151.551 9.40445 151.551 9.70455C151.551 10.0065 151.616 10.2747 151.747 10.5092C151.88 10.7418 152.064 10.9246 152.298 11.0578ZM153.606 10.6077C153.463 10.6921 153.299 10.7343 153.112 10.7343C152.926 10.7343 152.762 10.6921 152.618 10.6077C152.475 10.5233 152.364 10.4042 152.284 10.2504C152.203 10.0947 152.163 9.91275 152.163 9.70455C152.163 9.49824 152.203 9.31911 152.284 9.16719C152.364 9.01526 152.475 8.89804 152.618 8.81551C152.762 8.73298 152.926 8.69172 153.112 8.69172C153.299 8.69172 153.463 8.73298 153.606 8.81551C153.748 8.89804 153.859 9.01526 153.94 9.16719C154.02 9.31911 154.06 9.49824 154.06 9.70455C154.06 9.91275 154.02 10.0947 153.94 10.2504C153.859 10.4042 153.748 10.5233 153.606 10.6077ZM144.193 11.2736V10.212V10.0401V9.83542V9.65804C144.193 9.39787 144.139 9.20047 144.032 9.06584C143.926 8.93121 143.753 8.8639 143.511 8.8639C143.349 8.8639 143.209 8.89573 143.09 8.95941C142.972 9.02309 142.88 9.11042 142.815 9.2214C142.751 9.33238 142.719 9.45882 142.719 9.60073V11.2736H142.127V7.00817H142.719V8.73446C142.808 8.63404 142.915 8.54983 143.038 8.48183C143.226 8.37995 143.44 8.32901 143.68 8.32901C144.029 8.32901 144.3 8.43362 144.493 8.64285C144.688 8.85025 144.785 9.13953 144.785 9.51067V9.84634V10.2639V11.2736H144.193ZM145.632 17H146.227V13.0957L145.632 12.7325V17ZM158.143 16.9897V17H157.754H157.712H157.671H157.569C157.569 17 157.573 16.1055 157.569 15.5843C157.569 15.5843 157.554 15.2195 157.611 15.0089C157.722 14.5954 157.962 14.2818 158.333 14.068C158.592 13.9185 158.867 13.8498 159.16 13.862C159.445 13.8719 159.722 13.9608 159.96 14.1186L159.644 14.6011C159.495 14.5019 159.321 14.4463 159.143 14.4405C158.961 14.4331 158.78 14.4784 158.623 14.571C158.39 14.7057 158.239 14.9016 158.17 15.1588C158.143 15.2587 158.143 15.2972 158.143 15.4942V15.5843C158.143 15.9353 158.143 16.5281 158.143 16.5281V16.9384V16.9897ZM143.633 16.4191C143.815 16.4208 143.994 16.3699 144.148 16.2725C144.3 16.178 144.423 16.043 144.502 15.8825L145.016 16.1425C144.89 16.3982 144.694 16.6136 144.452 16.7649C144.205 16.922 143.932 17.0003 143.633 17C143.205 17 142.84 16.8488 142.537 16.5464C142.235 16.2439 142.084 15.8788 142.083 15.451C142.083 15.0234 142.235 14.6583 142.537 14.3556C142.84 14.0529 143.205 13.9017 143.633 13.902C143.932 13.902 144.205 13.9803 144.452 14.1371C144.694 14.2884 144.889 14.5038 145.016 14.7595L144.502 15.0195C144.423 14.8591 144.3 14.724 144.148 14.6295C143.994 14.532 143.815 14.4811 143.633 14.4829C143.364 14.4829 143.135 14.5769 142.946 14.765C142.758 14.9531 142.664 15.1819 142.664 15.4514C142.664 15.7206 142.758 15.9494 142.946 16.1378C143.135 16.3262 143.363 16.4199 143.633 16.4191ZM149.939 15.4407C149.938 15.5373 149.929 15.6335 149.911 15.7284H147.45C147.498 15.9571 147.606 16.1276 147.774 16.2401C147.942 16.3526 148.147 16.4089 148.391 16.4089C148.744 16.4089 149.03 16.3111 149.248 16.1157L149.746 16.4089C149.62 16.597 149.428 16.7408 149.168 16.8404C148.908 16.94 148.649 16.9897 148.391 16.9897C147.955 16.9897 147.588 16.8404 147.29 16.5416C146.991 16.2429 146.842 15.8759 146.842 15.4407C146.842 15.0167 146.994 14.6525 147.298 14.3481C147.602 14.0438 147.967 13.8917 148.391 13.8917C148.814 13.8917 149.179 14.0439 149.483 14.3481C149.787 14.6524 149.939 15.0166 149.939 15.4407ZM149.314 15.1477C149.255 14.9486 149.139 14.7863 148.966 14.6609C148.799 14.5387 148.598 14.4728 148.391 14.4728C148.184 14.4728 147.982 14.5387 147.816 14.6609C147.642 14.7862 147.526 14.9484 147.467 15.1477H149.314ZM152.827 13.8917L151.898 16.2375L151.112 14.2546L150.974 13.8921H150.349L151.61 16.9897H152.191L153.446 13.8917H152.827ZM156.954 15.4407C156.953 15.5373 156.944 15.6335 156.926 15.7284H154.465C154.513 15.9571 154.621 16.1276 154.788 16.2401C154.956 16.3526 155.162 16.4089 155.405 16.4089C155.759 16.4089 156.045 16.3111 156.262 16.1157L156.76 16.4089C156.635 16.597 156.442 16.7408 156.182 16.8404C155.922 16.94 155.663 16.9897 155.405 16.9897C154.97 16.9897 154.603 16.8404 154.305 16.5416C154.006 16.2429 153.857 15.8759 153.857 15.4407C153.857 15.0167 154.009 14.6525 154.313 14.3481C154.617 14.0438 154.981 13.8917 155.405 13.8917C155.829 13.8917 156.193 14.0439 156.497 14.3481C156.802 14.6524 156.954 15.0166 156.954 15.4407ZM154.481 15.1477H156.329C156.27 14.9486 156.154 14.7863 155.98 14.6609C155.814 14.5387 155.612 14.4728 155.405 14.4728C155.198 14.4728 154.997 14.5387 154.83 14.6609C154.657 14.7862 154.54 14.9484 154.481 15.1477Z" fill="#1C1C1E"/>
</g>
</g>
</g>
<defs>
<clipPath id="clip0_168_17924">
<rect width="164" height="24" fill="white"/>
</clipPath>
</defs>
</svg>
