<svg width="214" height="45" viewBox="0 0 214 45" fill="none" xmlns="http://www.w3.org/2000/svg">
<circle cx="22.5" cy="22.5" r="22.5" fill="#3E64FF"/>
<g clip-path="url(#clip0_338_4266)">
<path d="M19.6638 24.6126C19.725 24.6671 19.7991 24.7056 19.8794 24.7244C19.9598 24.7433 20.0438 24.7419 20.1237 24.7205C20.2037 24.699 20.2771 24.6582 20.3373 24.6017C20.3974 24.5452 20.4424 24.4748 20.4681 24.397L23.879 11.3099C23.8997 11.2303 23.899 11.1469 23.8769 11.0679C23.8549 10.989 23.8123 10.9172 23.7534 10.8598C23.6945 10.8024 23.6213 10.7613 23.5411 10.7405C23.4608 10.7198 23.3764 10.7202 23.296 10.7417L10.3907 14.2012C10.3104 14.2228 10.2369 14.2647 10.1777 14.3227C10.1185 14.3808 10.0756 14.453 10.0532 14.5322C10.0309 14.6115 10.0298 14.6949 10.0502 14.7744C10.0706 14.8538 10.1117 14.9265 10.1694 14.9851L19.6638 24.6126Z" fill="#00F9FF"/>
<path d="M25.3225 20.3835C25.2614 20.329 25.1872 20.2905 25.1069 20.2717C25.0266 20.2528 24.9426 20.2542 24.8626 20.2756C24.7826 20.2971 24.7092 20.3379 24.6491 20.3944C24.5889 20.4509 24.5439 20.5213 24.5182 20.5991L21.1074 33.6861C21.0867 33.7658 21.0874 33.8492 21.1094 33.9281C21.1314 34.0071 21.174 34.0789 21.2329 34.1363C21.2918 34.1937 21.365 34.2348 21.4452 34.2555C21.5255 34.2763 21.61 34.2759 21.6903 34.2544L34.5956 30.7948C34.676 30.7733 34.7494 30.7314 34.8086 30.6734C34.8678 30.6153 34.9107 30.5431 34.9331 30.4638C34.9555 30.3846 34.9565 30.3011 34.9361 30.2217C34.9157 30.1423 34.8746 30.0696 34.8169 30.011L25.3225 20.3835Z" fill="white"/>
</g>
<path d="M92.4073 32.5227H89.4414V11.25L92.4073 13.0606V32.5227Z" fill="#1F253A"/>
<path d="M98.4718 32.5227H95.5059V11.25L98.4718 13.0606V32.5227Z" fill="#1F253A"/>
<path d="M86.3701 24.7499C86.3661 25.231 86.32 25.7109 86.2322 26.1839H73.9642C74.2024 27.3238 74.74 28.1741 75.577 28.7348C76.4139 29.2955 77.4385 29.5759 78.6509 29.5759C80.4153 29.5759 81.8396 29.0887 82.924 28.1143L85.4057 29.5759C84.7805 30.5135 83.8202 31.2305 82.5248 31.7269C81.2294 32.2233 79.9381 32.4715 78.6509 32.4715C76.4814 32.4715 74.6527 31.7269 73.1647 30.2378C71.6767 28.7486 70.9323 26.9193 70.9316 24.7499C70.9316 22.636 71.6898 20.8205 73.2061 19.3034C74.7223 17.7864 76.5373 17.028 78.6509 17.0283C80.7641 17.0283 82.5791 17.7867 84.0957 19.3034C85.6123 20.8202 86.3704 22.6357 86.3701 24.7499ZM74.0469 23.2893H83.2548C82.9604 22.2966 82.3818 21.4876 81.519 20.8626C80.6871 20.2533 79.6829 19.9249 78.6519 19.9249C77.6209 19.9249 76.6166 20.2533 75.7847 20.8626C74.9199 21.487 74.3406 22.2959 74.0469 23.2893Z" fill="#1F253A"/>
<path d="M109.35 32.4732C107.82 32.4732 106.467 32.1412 105.292 31.4774C104.126 30.8136 103.212 29.902 102.55 28.7426C101.897 27.5739 101.57 26.2369 101.57 24.7316C101.57 23.2357 101.897 21.9127 102.55 20.7627C103.212 19.6033 104.126 18.7011 105.292 18.0559C106.467 17.4015 107.82 17.0742 109.35 17.0742C110.879 17.0742 112.227 17.4015 113.393 18.0559C114.568 18.7011 115.482 19.6033 116.135 20.7627C116.798 21.9127 117.129 23.2357 117.129 24.7316C117.129 26.2369 116.798 27.5739 116.135 28.7426C115.482 29.902 114.568 30.8136 113.393 31.4774C112.227 32.1412 110.879 32.4732 109.35 32.4732ZM109.35 29.8646C110.282 29.8646 111.103 29.6542 111.812 29.2335C112.521 28.8128 113.076 28.219 113.477 27.4524C113.878 26.6763 114.079 25.7694 114.079 24.7316C114.079 23.7031 113.878 22.8103 113.477 22.0529C113.076 21.2956 112.521 20.7112 111.812 20.2999C111.103 19.8885 110.282 19.6828 109.35 19.6828C108.426 19.6828 107.605 19.8885 106.887 20.2999C106.178 20.7112 105.623 21.2956 105.222 22.0529C104.821 22.8103 104.62 23.7031 104.62 24.7316C104.62 25.7694 104.821 26.6763 105.222 27.4524C105.623 28.219 106.178 28.8128 106.887 29.2335C107.605 29.6542 108.426 29.8646 109.35 29.8646Z" fill="#1F253A"/>
<path d="M64.8898 32.5536V27.2618C64.8898 27.026 64.8898 26.7403 64.8898 26.4048C64.8898 26.0692 64.8898 25.7291 64.8898 25.3845C64.8898 25.0308 64.8898 24.736 64.8898 24.5002C64.8898 23.2033 64.6223 22.2193 64.0872 21.5482C63.5612 20.8771 62.6951 20.5415 61.4889 20.5415C60.6817 20.5415 59.9834 20.7003 59.3939 21.0177C58.8044 21.3351 58.3464 21.7704 58.0199 22.3236C57.7025 22.8769 57.5438 23.5072 57.5438 24.2146L56.1562 23.6432C56.1562 22.5458 56.4192 21.5664 56.9452 20.7048C57.4803 19.8342 58.2104 19.1449 59.1354 18.637C60.0696 18.1292 61.1352 17.8752 62.3323 17.8752C64.0736 17.8752 65.4249 18.3967 66.3862 19.4396C67.3566 20.4735 67.8418 21.9155 67.8418 23.7656C67.8418 24.2372 67.8418 24.795 67.8418 25.4389C67.8418 26.0737 67.8418 26.7675 67.8418 27.5203V32.5536H64.8898ZM54.5918 32.5536V11.291H57.5438V32.5536H54.5918Z" fill="#1F253A"/>
<path d="M92.3897 32.5227H89.4238V11.25L92.3897 13.0606V32.5227Z" fill="#1F253A"/>
<path d="M98.4542 32.5227H95.4883V11.25L98.4542 13.0606V32.5227Z" fill="#1F253A"/>
<path d="M86.3525 24.7499C86.3485 25.231 86.3024 25.7109 86.2147 26.1839H73.9466C74.1849 27.3238 74.7225 28.1741 75.5594 28.7348C76.3963 29.2955 77.4209 29.5759 78.6333 29.5759C80.3977 29.5759 81.8221 29.0887 82.9064 28.1143L85.3881 29.5759C84.7629 30.5135 83.8026 31.2305 82.5072 31.7269C81.2118 32.2233 79.9205 32.4715 78.6333 32.4715C76.4639 32.4715 74.6352 31.7269 73.1471 30.2378C71.6591 28.7486 70.9147 26.9193 70.9141 24.7499C70.9141 22.636 71.6722 20.8205 73.1885 19.3034C74.7048 17.7864 76.5197 17.028 78.6333 17.0283C80.7465 17.0283 82.5615 17.7867 84.0781 19.3034C85.5947 20.8202 86.3528 22.6357 86.3525 24.7499ZM74.0293 23.2893H83.2372C82.9428 22.2966 82.3642 21.4876 81.5014 20.8626C80.6695 20.2533 79.6653 19.9249 78.6343 19.9249C77.6033 19.9249 76.5991 20.2533 75.7672 20.8626C74.9023 21.487 74.323 22.2959 74.0293 23.2893Z" fill="#1F253A"/>
<path d="M109.332 32.4732C107.802 32.4732 106.45 32.1412 105.274 31.4774C104.109 30.8136 103.194 29.902 102.532 28.7426C101.879 27.5739 101.553 26.2369 101.553 24.7316C101.553 23.2357 101.879 21.9127 102.532 20.7627C103.194 19.6033 104.109 18.7011 105.274 18.0559C106.45 17.4015 107.802 17.0742 109.332 17.0742C110.862 17.0742 112.21 17.4015 113.376 18.0559C114.551 18.7011 115.465 19.6033 116.118 20.7627C116.78 21.9127 117.111 23.2357 117.111 24.7316C117.111 26.2369 116.78 27.5739 116.118 28.7426C115.465 29.902 114.551 30.8136 113.376 31.4774C112.21 32.1412 110.862 32.4732 109.332 32.4732ZM109.332 29.8646C110.265 29.8646 111.086 29.6542 111.794 29.2335C112.503 28.8128 113.058 28.219 113.459 27.4524C113.861 26.6763 114.061 25.7694 114.061 24.7316C114.061 23.7031 113.861 22.8103 113.459 22.0529C113.058 21.2956 112.503 20.7112 111.794 20.2999C111.086 19.8885 110.265 19.6828 109.332 19.6828C108.409 19.6828 107.588 19.8885 106.869 20.2999C106.161 20.7112 105.606 21.2956 105.205 22.0529C104.803 22.8103 104.603 23.7031 104.603 24.7316C104.603 25.7694 104.803 26.6763 105.205 27.4524C105.606 28.219 106.161 28.8128 106.869 29.2335C107.588 29.6542 108.409 29.8646 109.332 29.8646Z" fill="#1F253A"/>
<path d="M64.8722 32.5536V27.2618C64.8722 27.026 64.8722 26.7403 64.8722 26.4048C64.8722 26.0692 64.8722 25.7291 64.8722 25.3845C64.8722 25.0308 64.8722 24.736 64.8722 24.5002C64.8722 23.2033 64.6047 22.2193 64.0696 21.5482C63.5436 20.8771 62.6775 20.5415 61.4713 20.5415C60.6642 20.5415 59.9658 20.7003 59.3763 21.0177C58.7868 21.3351 58.3288 21.7704 58.0024 22.3236C57.6849 22.8769 57.5262 23.5072 57.5262 24.2146L56.1386 23.6432C56.1386 22.5458 56.4017 21.5664 56.9277 20.7048C57.4627 19.8342 58.1928 19.1449 59.1179 18.637C60.052 18.1292 61.1176 17.8752 62.3147 17.8752C64.056 17.8752 65.4073 18.3967 66.3686 19.4396C67.339 20.4735 67.8242 21.9155 67.8242 23.7656C67.8242 24.2372 67.8242 24.795 67.8242 25.4389C67.8242 26.0737 67.8242 26.7675 67.8242 27.5203V32.5536H64.8722ZM54.5742 32.5536V11.291H57.5262V32.5536H54.5742Z" fill="#1F253A"/>
<path d="M127.884 29.6272C128.792 29.6358 129.683 29.382 130.45 28.8964C131.208 28.4254 131.82 27.752 132.216 26.9522L134.781 28.2483C134.148 29.5227 133.174 30.5967 131.967 31.3507C130.735 32.1338 129.374 32.5245 127.884 32.5228C125.751 32.5228 123.93 31.769 122.422 30.2614C120.915 28.7539 120.16 26.9338 120.16 24.8012C120.16 22.6699 120.914 20.8498 122.422 19.3409C123.93 17.832 125.751 17.0782 127.884 17.0796C129.374 17.0796 130.735 17.4703 131.967 18.2516C133.174 19.0059 134.148 20.0798 134.781 21.354L132.216 22.6502C131.82 21.8505 131.209 21.1773 130.451 20.706C129.683 20.2204 128.792 19.9666 127.884 19.9752C126.542 19.9752 125.401 20.444 124.462 21.3816C123.522 22.3192 123.053 23.4598 123.055 24.8032C123.055 26.1453 123.524 27.2858 124.462 28.2248C125.399 29.1638 126.54 29.6313 127.884 29.6272Z" fill="#1F253A"/>
<path d="M200.216 32.4717L200.216 32.5229L198.273 32.5229L198.069 32.5229L197.864 32.5229L197.353 32.5229C197.353 32.5229 197.372 28.064 197.353 25.4661C197.353 25.4661 197.281 23.6473 197.562 22.5974C198.114 20.5364 199.314 18.973 201.162 17.9072C202.452 17.1622 203.826 16.8198 205.284 16.8802C206.706 16.93 208.086 17.3728 209.271 18.1597L207.698 20.5648C206.955 20.0704 206.089 19.7932 205.197 19.7641C204.29 19.7273 203.392 19.9533 202.609 20.4149C201.447 21.0863 200.693 22.063 200.348 23.3447C200.196 23.911 200.217 24.0817 200.216 25.4661C200.214 27.2155 200.216 30.1706 200.216 30.1706L200.216 32.216L200.216 32.4717Z" fill="#1F253A"/>
<path d="M140.814 32.5227H137.848V11.25L140.814 13.0606V32.5227Z" fill="#1F253A"/>
<path d="M159.319 24.7499C159.315 25.231 159.269 25.7109 159.181 26.1839H146.913C147.152 27.3238 147.689 28.1741 148.526 28.7348C149.363 29.2955 150.388 29.5759 151.6 29.5759C153.364 29.5759 154.789 29.0887 155.873 28.1143L158.355 29.5759C157.73 30.5135 156.769 31.2305 155.474 31.7269C154.179 32.2233 152.887 32.4715 151.6 32.4715C149.431 32.4715 147.602 31.7269 146.114 30.2378C144.626 28.7486 143.882 26.9193 143.881 24.7499C143.881 22.636 144.639 20.8205 146.155 19.3034C147.672 17.7864 149.486 17.028 151.6 17.0283C153.713 17.0283 155.528 17.7867 157.045 19.3034C158.562 20.8202 159.32 22.6357 159.319 24.7499ZM146.996 23.2893H156.204C155.91 22.2966 155.331 21.4876 154.468 20.8626C153.636 20.2533 152.632 19.9249 151.601 19.9249C150.57 19.9249 149.566 20.2533 148.734 20.8626C147.869 21.487 147.29 22.2959 146.996 23.2893Z" fill="#1F253A"/>
<path d="M169.082 28.7215L173.714 17.0283H176.802L170.543 32.4715H167.648L161.363 17.0304H164.478L165.167 18.8374L169.082 28.7215Z" fill="#1F253A"/>
<path d="M194.286 24.7499C194.282 25.231 194.236 25.7109 194.148 26.1839H181.88C182.118 27.3238 182.656 28.1741 183.493 28.7348C184.33 29.2955 185.355 29.5759 186.567 29.5759C188.331 29.5759 189.756 29.0887 190.84 28.1143L193.322 29.5759C192.697 30.5135 191.737 31.2305 190.441 31.7269C189.146 32.2233 187.854 32.4715 186.568 32.4715C184.399 32.4715 182.57 31.7269 181.082 30.2378C179.593 28.7486 178.848 26.9193 178.848 24.7499C178.848 22.636 179.606 20.8205 181.122 19.3034C182.638 17.7864 184.453 17.028 186.567 17.0283C188.68 17.0283 190.495 17.7867 192.012 19.3034C193.529 20.8202 194.287 22.6357 194.286 24.7499ZM181.963 23.2893H191.171C190.877 22.2966 190.298 21.4876 189.435 20.8626C188.603 20.2533 187.599 19.9249 186.568 19.9249C185.537 19.9249 184.533 20.2533 183.701 20.8626C182.836 21.487 182.257 22.2959 181.963 23.2893Z" fill="#1F253A"/>
<defs>
<clipPath id="clip0_338_4266">
<rect width="26.5828" height="26.5909" fill="white" transform="translate(9.20117 9.20459)"/>
</clipPath>
</defs>
</svg>
