<svg width="112" height="24" viewBox="0 0 112 24" fill="none" xmlns="http://www.w3.org/2000/svg">
<g clip-path="url(#clip0_3266_126142)">
<g clip-path="url(#clip1_3266_126142)">
<circle cx="12" cy="12" r="12" fill="#2E49DB"/>
<path d="M10.4885 13.1262C10.5211 13.1553 10.5606 13.1758 10.6035 13.1858C10.6463 13.1959 10.6911 13.1952 10.7338 13.1837C10.7764 13.1723 10.8156 13.1505 10.8476 13.1204C10.8797 13.0902 10.9037 13.0527 10.9174 13.0112L12.7366 6.03145C12.7476 5.98898 12.7472 5.94449 12.7355 5.90238C12.7237 5.86027 12.701 5.822 12.6696 5.79137C12.6382 5.76075 12.5991 5.73882 12.5563 5.72777C12.5136 5.71672 12.4685 5.71693 12.4256 5.72838L5.54283 7.57348C5.49996 7.58496 5.4608 7.6073 5.42922 7.63826C5.39765 7.66923 5.37476 7.70775 5.36283 7.75001C5.3509 7.79226 5.35034 7.83678 5.36121 7.87915C5.37208 7.92152 5.394 7.96026 5.42479 7.99153L10.4885 13.1262Z" fill="#00F9FF"/>
<path d="M13.5057 10.8738C13.473 10.8447 13.4335 10.8242 13.3907 10.8142C13.3478 10.8041 13.303 10.8048 13.2604 10.8163C13.2177 10.8277 13.1786 10.8495 13.1465 10.8796C13.1144 10.9098 13.0904 10.9473 13.0767 10.9888L11.2576 17.9686C11.2465 18.011 11.2469 18.0555 11.2587 18.0976C11.2704 18.1397 11.2931 18.178 11.3245 18.2086C11.356 18.2393 11.395 18.2612 11.4378 18.2722C11.4806 18.2833 11.5256 18.2831 11.5685 18.2716L18.4513 16.4265C18.4942 16.415 18.5333 16.3927 18.5649 16.3617C18.5965 16.3308 18.6194 16.2922 18.6313 16.25C18.6432 16.2077 18.6438 16.1632 18.6329 16.1208C18.6221 16.0785 18.6001 16.0397 18.5693 16.0085L13.5057 10.8738Z" fill="white"/>
</g>
<path fill-rule="evenodd" clip-rule="evenodd" d="M47.702 17.3455H49.2838V6.96565L47.702 6V17.3455ZM50.936 17.3455H52.5178V6.96565L50.936 6V17.3455ZM46.0634 13.2001C46.0613 13.4567 46.0367 13.7126 45.9899 13.9649H39.447C39.574 14.5728 39.8607 15.0263 40.3071 15.3253C40.7535 15.6244 41.2999 15.7739 41.9465 15.7739C42.8875 15.7739 43.6472 15.5141 44.2255 14.9944L45.5491 15.7739C45.2156 16.274 44.7035 16.6564 44.0126 16.9211C43.3217 17.1859 42.633 17.3182 41.9465 17.3182C40.7895 17.3182 39.8142 16.9211 39.0206 16.1269C38.2269 15.3327 37.83 14.3571 37.8296 13.2001C37.8296 12.0726 38.2339 11.1044 39.0426 10.2953C39.8513 9.48616 40.8193 9.0817 41.9465 9.08188C43.0736 9.08188 44.0415 9.48634 44.8504 10.2953C45.6593 11.1042 46.0636 12.0725 46.0634 13.2001ZM44.402 12.4211C44.2449 11.8916 43.9364 11.4602 43.4762 11.1268C43.0325 10.8019 42.4969 10.6267 41.9471 10.6267C41.3972 10.6267 40.8616 10.8019 40.4179 11.1268C39.9567 11.4598 39.6477 11.8912 39.4911 12.4211H44.402ZM56.155 16.7881C56.7818 17.1421 57.5031 17.3191 58.319 17.3191C59.1348 17.3191 59.8537 17.1421 60.4755 16.7881C61.1023 16.434 61.5899 15.9478 61.9381 15.3295C62.2913 14.7062 62.4679 13.9931 62.4679 13.1903C62.4679 12.3925 62.2913 11.6869 61.9381 11.0735C61.5899 10.4552 61.1023 9.974 60.4755 9.62994C59.8537 9.28088 59.1348 9.10635 58.319 9.10635C57.5031 9.10635 56.7818 9.28088 56.155 9.62994C55.5331 9.974 55.0456 10.4552 54.6924 11.0735C54.3442 11.6869 54.17 12.3925 54.17 13.1903C54.17 13.9931 54.3442 14.7062 54.6924 15.3295C55.0456 15.9478 55.5331 16.434 56.155 16.7881ZM59.6323 15.5913C59.2542 15.8157 58.8165 15.9279 58.319 15.9279C57.8265 15.9279 57.3887 15.8157 57.0056 15.5913C56.6276 15.3669 56.3316 15.0503 56.1177 14.6414C55.9037 14.2275 55.7968 13.7438 55.7968 13.1903C55.7968 12.6418 55.9037 12.1656 56.1177 11.7617C56.3316 11.3578 56.6276 11.0461 57.0056 10.8267C57.3887 10.6073 57.8265 10.4976 58.319 10.4976C58.8165 10.4976 59.2542 10.6073 59.6323 10.8267C60.0104 11.0461 60.3064 11.3578 60.5203 11.7617C60.7342 12.1656 60.8412 12.6418 60.8412 13.1903C60.8412 13.7438 60.7342 14.2275 60.5203 14.6414C60.3064 15.0503 60.0104 15.3669 59.6323 15.5913ZM34.6075 17.3617V14.5394V14.0823V13.5382V13.0666C34.6075 12.3749 34.4648 11.8501 34.1794 11.4922C33.8989 11.1342 33.437 10.9553 32.7937 10.9553C32.3632 10.9553 31.9908 11.0399 31.6764 11.2092C31.362 11.3785 31.1177 11.6107 30.9436 11.9057C30.7743 12.2008 30.6896 12.5369 30.6896 12.9142V17.3617H29.1152V6.02167H30.6896V10.6112C30.9263 10.3442 31.2092 10.1203 31.5385 9.93954C32.0367 9.66868 32.605 9.53324 33.2435 9.53324C34.1722 9.53324 34.8929 9.81136 35.4056 10.3676C35.9231 10.919 36.1819 11.6881 36.1819 12.6748V13.5672V14.6773V17.3617H34.6075ZM73.5187 17.3455H75.1005V6.96565L73.5187 6V17.3455ZM106.781 17.3182V17.3455H105.745H105.636L105.527 17.3455L105.254 17.3455C105.254 17.3455 105.264 14.9674 105.254 13.5818C105.254 13.5818 105.216 12.6118 105.366 12.0519C105.66 10.9527 106.3 10.1189 107.286 9.55045C107.974 9.15309 108.707 8.97052 109.484 9.00273C110.242 9.02925 110.979 9.26545 111.611 9.68511L110.772 10.9678C110.376 10.7042 109.914 10.5563 109.438 10.5408C108.954 10.5212 108.475 10.6417 108.058 10.8879C107.438 11.246 107.036 11.7668 106.852 12.4505C106.78 12.7162 106.78 12.8186 106.781 13.3422V13.3448V13.3475V13.3503C106.781 13.4197 106.781 13.4964 106.781 13.5818C106.78 14.5149 106.781 16.0909 106.781 16.0909V17.1818V17.3182ZM68.2046 15.8012C68.6887 15.8058 69.1638 15.6704 69.5728 15.4114C69.9773 15.1602 70.3036 14.8011 70.515 14.3745L71.8827 15.0658C71.5452 15.7455 71.0257 16.3182 70.382 16.7204C69.7249 17.138 68.999 17.3464 68.2046 17.3455C67.0666 17.3455 66.0956 16.9435 65.2915 16.1395C64.4874 15.3354 64.0853 14.3647 64.0851 13.2273C64.0851 12.0906 64.4872 11.1199 65.2915 10.3152C66.0958 9.51042 67.0668 9.10841 68.2046 9.10913C68.999 9.10913 69.7249 9.31749 70.382 9.73421C71.0256 10.1365 71.545 10.7093 71.8827 11.3888L70.515 12.0801C70.3037 11.6536 69.9776 11.2946 69.5734 11.0432C69.1642 10.7842 68.6889 10.6489 68.2046 10.6534C67.4886 10.6534 66.8801 10.9035 66.3791 11.4035C65.8782 11.9036 65.6281 12.5119 65.6288 13.2284C65.6288 13.9442 65.8789 14.5525 66.3791 15.0533C66.8794 15.554 67.4878 15.8034 68.2046 15.8012ZM84.9697 13.2001C84.9676 13.4567 84.943 13.7126 84.8962 13.9649H78.3533C78.4803 14.5728 78.7671 15.0263 79.2134 15.3253C79.6598 15.6244 80.2062 15.7739 80.8528 15.7739C81.7938 15.7739 82.5535 15.5141 83.1318 14.9944L84.4554 15.7739C84.122 16.274 83.6098 16.6564 82.9189 16.9211C82.228 17.1859 81.5393 17.3182 80.8528 17.3182C79.6958 17.3182 78.7205 16.9211 77.9269 16.1269C77.1333 15.3327 76.7363 14.3571 76.7359 13.2001C76.7359 12.0727 77.1403 11.1044 77.9489 10.2953C78.7576 9.48617 79.7256 9.0817 80.8528 9.08188C81.9799 9.08188 82.9479 9.48635 83.7567 10.2953C84.5656 11.1042 84.9699 12.0725 84.9697 13.2001ZM83.3083 12.4211C83.1513 11.8916 82.8427 11.4602 82.3825 11.1268C81.9388 10.8019 81.4033 10.6267 80.8534 10.6267C80.3035 10.6267 79.7679 10.8019 79.3242 11.1268C78.863 11.4598 78.554 11.8913 78.3974 12.4211H83.3083ZM92.6472 9.08188L90.1769 15.3183L88.0891 10.0468L87.7213 9.08297H86.0602L89.4123 17.3182H90.9562L94.2941 9.08188H92.6472ZM103.619 13.2001C103.617 13.4567 103.592 13.7126 103.545 13.9649H97.0021C97.1291 14.5728 97.4158 15.0263 97.8622 15.3253C98.3086 15.6244 98.855 15.7739 99.5016 15.7739C100.443 15.7739 101.202 15.5141 101.781 14.9944L103.104 15.7739C102.771 16.274 102.259 16.6564 101.568 16.9211C100.877 17.1859 100.188 17.3182 99.5022 17.3182C98.3455 17.3182 97.3702 16.9211 96.5762 16.1269C95.7822 15.3327 95.3851 14.3571 95.3847 13.2001C95.3847 12.0727 95.789 11.1044 96.5977 10.2953C97.4064 9.48617 98.3744 9.0817 99.5016 9.08188C100.629 9.08188 101.596 9.48635 102.406 10.2953C103.215 11.1042 103.619 12.0725 103.619 13.2001ZM101.957 12.4211C101.8 11.8916 101.492 11.4602 101.031 11.1268C100.588 10.8019 100.052 10.6267 99.5022 10.6267C98.9523 10.6267 98.4167 10.8019 97.973 11.1268C97.5118 11.4598 97.2028 11.8913 97.0462 12.4211H101.957Z" fill="white"/>
</g>
<defs>
<clipPath id="clip0_3266_126142">
<rect width="112" height="24" fill="white"/>
</clipPath>
<clipPath id="clip1_3266_126142">
<rect width="24" height="24" fill="white"/>
</clipPath>
</defs>
</svg>
