<svg width="8" height="8" viewBox="0 0 8 8" fill="none" xmlns="http://www.w3.org/2000/svg">
<path d="M4 0C1.8 0 0 1.8 0 4C0 6.2 1.8 8 4 8C6.2 8 8 6.2 8 4C8 1.8 6.2 0 4 0ZM4 6.5C3.7 6.5 3.5 6.3 3.5 6C3.5 5.7 3.7 5.5 4 5.5C4.3 5.5 4.5 5.7 4.5 6C4.5 6.3 4.3 6.5 4 6.5ZM4.75 4.2C4.5 4.35 4.5 4.4 4.5 4.5V5H3.5V4.5C3.5 3.85 3.9 3.55 4.2 3.35C4.45 3.2 4.5 3.15 4.5 3C4.5 2.7 4.3 2.5 4 2.5C3.8 2.5 3.65 2.6 3.55 2.75L3.3 3.2L2.45 2.7L2.7 2.25C2.95 1.8 3.45 1.5 4 1.5C4.85 1.5 5.5 2.15 5.5 3C5.5 3.7 5.05 4 4.75 4.2Z" fill="#3E64FF"/>
</svg>
