<svg width="40" height="40" viewBox="0 0 40 40" fill="none" xmlns="http://www.w3.org/2000/svg">
<path d="M9.76367 12.0781H29.987V31.8838H9.76367V12.0781Z" fill="#B7B9BE"/>
<path d="M36.1547 11.2387L19.8631 2.85938L3.57129 11.2387H36.1547Z" fill="#EFEFEF"/>
<path d="M10.5742 9.54054L19.8627 4.77344L29.1512 9.54054H10.5742Z" fill="#FCFCFD"/>
<path d="M5.75879 11.2422H33.9683V12.8886H5.75879V11.2422ZM5.75879 31.0724H33.9683V32.7188H5.75879V31.0724Z" fill="#DEDEDF"/>
<path d="M4.30859 32.6382H35.4176V34.2846H4.30859V32.6382ZM6.49553 12.9062V13.8892C6.49553 14.5526 7.03616 15.0933 7.69963 15.0933H11.877C12.5404 15.0933 13.0811 14.5526 13.0811 13.8892V12.9062H6.49553ZM13.0811 31.0655V30.0826C13.0811 29.4191 12.5404 28.8785 11.877 28.8785H7.69963C7.03616 28.8785 6.49553 29.4191 6.49553 30.0826V31.0655H13.0811Z" fill="#EEEEEE"/>
<path d="M7.65039 15.0938H11.9506V28.9036H7.65039V15.0938Z" fill="#DEDEDF"/>
<path d="M16.6193 12.9062V13.8892C16.6193 14.5526 17.1599 15.0933 17.8234 15.0933H22.0253C22.6888 15.0933 23.2294 14.5526 23.2294 13.8892V12.9062H16.6193ZM23.2048 31.0655V30.0826C23.2048 29.4191 22.6642 28.8785 22.0007 28.8785H17.7988C17.1354 28.8785 16.5947 29.4191 16.5947 30.0826V31.0655H23.2048Z" fill="#EEEEEE"/>
<path d="M17.75 15.0938H22.0502V28.9036H17.75V15.0938Z" fill="#DEDEDF"/>
<path d="M26.7188 12.9062V13.8892C26.7188 14.5526 27.2594 15.0933 27.9228 15.0933H32.1247C32.7882 15.0933 33.3288 14.5526 33.3288 13.8892V12.9062H26.7188ZM33.3043 31.0655V30.0826C33.3043 29.4191 32.7636 28.8785 32.1002 28.8785H27.9228C27.2594 28.8785 26.7188 29.4191 26.7188 30.0826V31.0655H33.3043Z" fill="#EEEEEE"/>
<path d="M27.874 15.0938H32.1743V28.9036H27.874V15.0938Z" fill="#DEDEDF"/>
</svg>
