<svg width="32" height="32" viewBox="0 0 32 32" fill="none" xmlns="http://www.w3.org/2000/svg">
<circle cx="16" cy="16" r="16" fill="#3E64FF"/>
<g clip-path="url(#clip0_4235_96)">
<path d="M13.9892 17.5104C14.0327 17.5492 14.0855 17.5765 14.1426 17.59C14.1998 17.6034 14.2595 17.6024 14.3164 17.5872C14.3733 17.5719 14.4255 17.5429 14.4683 17.5027C14.5111 17.4625 14.543 17.4125 14.5613 17.3571L16.9869 8.05053C17.0016 7.99391 17.0011 7.93459 16.9854 7.87843C16.9698 7.82228 16.9395 7.77126 16.8976 7.73042C16.8557 7.68957 16.8036 7.66034 16.7465 7.6456C16.6894 7.63086 16.6293 7.63114 16.5722 7.6464L7.39276 10.106C7.33559 10.1213 7.28336 10.1511 7.24125 10.1924C7.19914 10.2337 7.16861 10.2851 7.1527 10.3414C7.13679 10.3977 7.13605 10.4571 7.15055 10.5136C7.16505 10.5701 7.19429 10.6217 7.23537 10.6634L13.9892 17.5104Z" fill="#00F9FF"/>
<path d="M18.0126 14.5013C17.9691 14.4625 17.9164 14.4352 17.8593 14.4218C17.8021 14.4084 17.7424 14.4093 17.6855 14.4246C17.6286 14.4398 17.5764 14.4688 17.5336 14.509C17.4908 14.5492 17.4588 14.5993 17.4406 14.6546L15.015 23.9612C15.0003 24.0178 15.0008 24.0771 15.0165 24.1333C15.0321 24.1894 15.0624 24.2405 15.1043 24.2813C15.1462 24.3221 15.1983 24.3514 15.2554 24.3661C15.3125 24.3809 15.3725 24.3806 15.4297 24.3653L24.6091 21.9057C24.6663 21.8904 24.7185 21.8606 24.7606 21.8193C24.8027 21.778 24.8333 21.7267 24.8492 21.6703C24.8651 21.614 24.8658 21.5546 24.8513 21.4981C24.8368 21.4416 24.8076 21.39 24.7665 21.3483L18.0126 14.5013Z" fill="white"/>
</g>
<defs>
<clipPath id="clip0_4235_96">
<rect width="18.9091" height="18.9091" fill="white" transform="translate(6.54565 6.55273)"/>
</clipPath>
</defs>
</svg>
